<svg xmlns="http://www.w3.org/2000/svg" pointer-events="none" class="leaflet-zoom-animated" width="1154" height="818" viewBox="-96 -68 1154 818" style="transform: translate3d(-96px, -68px, 0px);"><g><path class="leaflet-interactive" stroke="#201920" stroke-opacity="1" stroke-width="2" stroke-linecap="round" stroke-linejoin="round" fill="none" d="M310 311L308 307L311 304L310 303L314 299L316 299L316 297L317 298L320 296L321 299L325 299L328 293L333 294L333 292L334 293L340 288L347 285L347 278L350 277L347 265L344 264L349 261L350 262L354 260L360 260L358 256L363 244L368 247L377 246L377 236L384 232L384 228L390 228L389 231L391 231L391 233L393 235L394 234L395 237L402 239L405 242L408 249L406 259L409 262L410 261L415 263L423 263L430 269L433 268L432 269L438 281L464 281L480 288L484 287L485 289L500 283L512 283L517 281L527 272L524 269L525 264L527 262L536 265L543 259L546 260L549 258L553 252L557 252L563 248L567 248L566 249L567 248L569 250L572 249L571 244L565 238L562 237L558 241L556 239L552 239L550 241L547 237L549 236L554 222L560 225L564 221L569 220L569 214L573 206L577 202L577 198L573 196L578 190L579 191L586 188L594 188L600 192L603 191L607 195L609 199L608 200L610 202L609 203L612 208L611 209L615 215L614 218L616 218L615 221L617 224L622 224L630 230L632 230L634 234L633 237L636 241L640 241L652 235L658 234L656 236L656 242L653 243L654 245L652 253L649 256L647 262L646 263L640 260L636 264L636 279L634 279L632 281L633 282L629 278L628 283L626 283L623 286L619 286L620 289L618 291L613 290L614 289L611 288L610 291L605 296L603 296L604 297L603 296L598 300M338 358L336 354L337 353L339 355L341 353L341 351L338 348L338 344L340 342L335 340L335 334L329 334L326 331L324 331L322 329L322 325L314 323L314 321L316 322M498 422L496 420L497 417L492 416L489 413L481 419L479 417L476 419L474 417L472 417L472 419L468 419L468 427L466 427L465 423L461 425L459 421L455 421L454 420L456 416L453 415L451 411L451 409L453 409L445 409L446 402L450 398L452 398L452 388L450 386L449 387L448 382L445 381L442 386L438 382L434 382L422 391L414 391L413 387L411 387L410 384L407 385L408 384L399 383L397 389L395 387L396 384L385 385L383 383L380 384L381 383L379 385L378 382L374 382L375 380L370 379L368 375L365 376L355 368L353 368L352 371L343 364L339 364L338 358M504 424L498 422M506 516L506 510M512 457L515 463M518 480L516 486M526 531L532 529M547 509L551 504M564 488L567 481M567 458L567 465M573 440L570 446M584 424L579 429M587 413L589 405" id="国界"/><path class="leaflet-interactive" stroke="#201920" stroke-opacity="1" stroke-width="2" stroke-linecap="butt" stroke-linejoin="round" stroke-dasharray="4,4" stroke-dashoffset="4" fill="none" d="M316 322L318 320L316 318L316 312L310 311" id="争议"/><path class="leaflet-interactive" stroke="gray" stroke-opacity="1" stroke-width="1" stroke-linecap="round" stroke-linejoin="round" stroke-dasharray="8,4,4,4" fill="none" d="M536 420L536 420M540 418L538 420L540 421L540 418" id="港澳"/><path class="leaflet-interactive" stroke="#4190da" stroke-opacity="1" stroke-width="1" stroke-linecap="round" stroke-linejoin="round" fill="none" d="M539 419L537 417L537 419L534 422L533 421L533 423L527 423L525 425L517 427L519 431L517 433L515 433L514 424L504 424M518 427L518 427M518 427L519 428L517 428L518 427M536 420L536 420M539 419L539 419M539 419L539 419M539 419L539 419M572 392L570 396L570 400L572 400L568 400L569 401L567 401L567 403L564 406L562 406L562 408L558 412L556 412L551 417L548 416L548 418L543 417L541 418L542 419L540 419L541 420L539 419M572 392L572 392M583 377L582 376L582 382L580 384L579 383L579 385L576 387L577 388L572 392M581 325L578 326L576 330L573 329L574 330L568 338L575 343L578 350L578 354L580 354L581 357L583 357L584 360L578 359L580 361M580 361L583 362L585 367L579 367L584 372L584 376M581 325L581 325M581 325L581 325M586 306L579 311L579 309L582 308L580 304L585 299L583 295L579 295L576 298L576 300L570 302L569 305L566 308L567 307L564 308L565 309L561 307L559 311L559 313L561 313L564 316L567 315L569 317L567 319L568 322L572 322L572 320L576 317L578 317L581 320L584 319L588 321L587 324L584 323L581 325M581 325L582 324L581 325M583 377L583 377M583 377L583 377M583 377L583 377M584 376L583 377M584 376L584 376M585 371L585 371M585 371L585 371M585 371L585 371M586 371L585 371M585 371L584 370L586 371M586 371L586 371M586 369L586 369M586 369L586 369M586 306L586 306M598 300L595 303L591 303L586 306M587 366L587 366M587 366L587 366M588 366L588 366M509 424L509 424M511 428L511 428M513 434L513 434M513 508L516 507L513 508M513 445L508 442L508 438L512 434L513 435L519 433L522 435L519 441L513 445M515 505L515 505M518 430L518 430M518 427L518 427M518 505L519 506L518 505M518 504L519 503L518 504M519 427L519 427M519 432L519 432M519 504L519 504M519 428L519 428M523 459L523 459M524 451L524 451M524 501L524 501M524 455L524 455M524 497L524 497M525 507L525 507M525 505L525 505M525 455L525 455M525 455L525 455M525 505L525 505M525 456L525 456M525 500L526 501L525 500M525 454L525 454M525 506L525 506M525 454L525 454M526 457L525 456L526 457M526 455L526 455M526 457L526 457M527 504L527 504M527 456L527 456M527 528L527 528M528 500L529 499L528 500M528 499L528 499M528 528L528 528M528 453L528 453M528 460L529 459L528 460M528 452L528 452M529 499L529 499M529 528L529 528M529 499L529 499M529 518L529 518M529 452L529 452M529 453L529 453M529 456L529 456M530 424L530 424M530 517L530 517M530 458L531 457L530 458M530 455L530 455M530 495L530 495M530 518L530 518M530 517L530 517M530 499L531 500L530 499M530 516L530 516M530 521L530 521M530 424L530 424M530 518L531 519L530 518M531 519L531 519M531 455L531 455M531 521L531 521M531 423L530 424L531 423M531 456L531 456M531 454L531 454M532 424L531 423L532 424M532 499L532 499M532 424L532 424M532 453L532 453M532 505L532 505M532 495L532 495M532 495L532 495M532 522L533 521L532 522M533 502L533 502M533 437L533 437M533 495L533 495M533 423L533 423M534 422L534 422M534 423L534 423M534 422L534 422M534 514L534 514M534 504L534 504M534 504L535 503L534 504M536 421L536 421M536 491L536 491M536 510L536 510M536 499L537 498L536 499M537 497L537 497M537 422L537 422M537 460L537 460M537 422L537 422M537 422L537 422M537 422L537 422M537 506L538 507L537 506M537 508L537 508M538 419L538 419M538 421L538 421M538 439L538 439M538 420L538 420M538 493L538 493M538 461L538 461M538 460L538 460M538 504L538 504M538 507L542 505L538 507M538 499L538 499M538 459L538 459M538 499L539 500L538 499M538 499L539 500L538 499M538 461L538 461M539 493L539 493M539 488L539 488M539 504L539 504M539 458L539 458M539 420L539 420M539 422L539 422M539 496L540 497L539 496M540 420L540 420M540 422L540 422M540 500L540 500M540 458L540 458M540 422L540 422M540 461L540 461M540 491L540 491M540 494L540 494M540 421L540 421M540 460L540 460M540 494L540 494M540 485L540 485M540 418L540 418M540 487L540 487M540 420L540 420M541 492L541 492M541 489L541 489M541 484L541 484M541 458L542 457L541 458M541 493L541 493M541 460L541 460M541 494L541 494M541 488L541 488M541 489L542 488L541 489M541 493L541 493M541 504L542 503L541 504M542 493L542 493M542 493L542 493M542 485L542 485M542 493L542 493M542 499L542 499M542 460L542 460M542 493L542 493M542 485L542 485M542 419L542 419M542 507L542 507M542 503L542 503M542 491L542 491M542 484L543 485L542 484M543 487L543 487M543 457L543 457M543 494L542 495L543 494M543 503L543 503M543 486L543 486M543 458L543 458M543 488L543 488M543 509L543 509M543 504L544 505L543 504M544 488L544 488M544 458L544 458M544 507L544 507M544 487L544 487M545 502L546 503L545 502M546 501L546 501M546 492L546 492M546 470L546 470M547 496L547 496M547 493L547 493M547 502L547 502M548 490L548 490M548 490L548 490M548 490L548 490M549 490L549 490M549 490L549 490M549 494L549 494M549 488L549 488M549 428L549 428M550 427L550 427M550 497L550 497M550 492L550 492M551 495L551 495M551 499L551 499M552 494L552 494M553 498L553 498M553 494L553 494M553 491L553 491M553 494L553 494M554 490L554 490M554 456L554 456M554 484L554 484M554 430L554 430M554 498L554 498M554 429L555 430L554 429M555 490L555 490M556 413L556 413M557 489L557 489M557 489L557 489M557 491L557 491M557 489L557 489M557 487L557 487M558 492L558 492M558 487L558 487M559 489L559 489M560 487L560 487M560 463L560 463M560 488L560 488M562 407L562 407M562 407L562 407M563 407L563 407M564 406L563 407L564 406M565 308L565 308M566 308L566 308M566 308L566 308M569 414L569 414M570 402L570 402M570 413L570 413M570 412L570 412M570 411L570 411M570 399L570 399M571 396L571 396M571 412L571 412M571 399L571 399M571 399L571 399M571 393L571 393M571 401L571 401M571 401L571 401M571 393L571 393M572 399L572 399M572 396L572 396M572 397L572 397M573 413L573 413M573 395L573 395M573 394L573 394M573 393L573 393M573 393L573 393M573 392L573 392M574 332L574 332M574 391L574 391M575 420L575 420M575 391L575 391M575 318L575 318M575 394L575 394M576 316L576 316M577 422L574 418L573 411L578 405L578 403L582 401L584 403L580 417L577 422M577 316L577 316M577 316L577 316M577 315L577 315M577 298L577 298M577 314L577 314M578 313L578 313M578 313L578 313M578 327L578 327M579 384L579 384M579 388L579 388M579 384L579 384M579 384L579 384M581 359L584 361L582 361L581 359M581 354L581 354M581 417L581 417M581 421L582 422L581 421M582 422L582 422M582 361L582 361M582 377L582 377M583 379L583 379M583 362L582 361L583 362M583 362L585 362L583 362M583 371L583 371M583 379L583 379M583 379L583 379M583 381L583 381M583 370L584 371L583 370M583 363L583 363M583 381L583 381M584 400L584 400M584 404L584 404M584 370L584 370M584 363L584 363M584 369L584 369M584 376L584 376M584 373L584 373M584 371L584 371M584 370L584 370M584 367L584 367M585 371L585 371M585 371L585 371M585 371L585 371M585 371L585 371M585 370L585 370M585 369L585 369M585 369L585 369M585 375L585 375M585 373L584 372L585 373M585 373L585 373M585 371L585 371M586 372L586 372M586 372L586 372M586 373L585 372L586 373M586 371L587 372L586 371M586 307L586 307M586 371L586 371M586 368L586 368M587 368L587 368M587 307L587 307M587 307L587 307M587 367L587 367M588 307L588 307M588 370L588 370M588 309L588 309M588 366L588 366M589 366L589 366M590 305L590 305M590 306L590 306M591 309L591 309M592 398L593 399L591 399L592 398M593 398L593 398M593 397L594 398L593 397M593 399L593 399M593 398L593 398M593 399L593 399M594 303L594 303M598 397L599 398L598 397" id="海洋"/><path class="leaflet-interactive" stroke="#747569" stroke-opacity="0.6" stroke-width="1" stroke-linecap="round" stroke-linejoin="round" fill="none" d="M400 330L398 328L387 327L381 329L377 333L374 332L369 335L362 334L362 332L354 336L348 334L345 337L345 339L343 341L339 341L340 342M446 354L444 354L444 356L441 357L442 358L440 358L440 360L438 358L438 360L435 360L433 356L432 357L432 355L428 353L424 355L413 352L411 350L405 350L401 346L402 345L400 345L400 330M416 308L403 312L403 314L405 314L405 318L409 321L409 323L406 324L406 326L408 326L408 330L402 328L402 330L400 330M469 347L468 348L468 346L467 347L463 343L471 343L472 342L470 338L472 334L475 333L474 334L476 330L473 323L474 322L470 318L465 317L460 312L460 314L457 313L452 308L448 310L443 307L441 309L442 312L440 312L440 314L437 315L435 313L429 313L427 310L425 311L419 307L416 308M438 281L436 283L437 287L435 287L432 290L432 288L430 288L423 296L419 297L415 307L416 308M483 320L478 317L478 313L483 309L481 305L476 308L471 307L471 309L467 311L464 308L464 306L456 302L460 299L459 295L457 294L452 297L449 297L449 294L445 291L447 289L443 280M454 376L453 366L451 363L452 362L450 360L449 355L446 354M469 347L468 350L465 349L466 352L464 354L460 354L459 351L457 353L454 350L452 350L450 344L447 343L444 346L446 348L444 352L446 354M448 383L452 382L451 379L453 379L454 376M489 386L488 383L484 385L483 380L481 380L481 382L478 383L479 386L475 388L476 395L473 394L469 396L463 384L461 386L459 384L460 383L458 379L456 379L455 382L454 381L454 376M490 352L488 354L485 353L483 351L483 347L479 345L478 346L476 342L474 342L474 344L471 345L473 347L470 350L469 347M502 317L496 313L499 308L497 306L492 310L491 318L483 320M483 320L485 320L485 322L486 321L489 324L489 332L490 331L495 336L495 332L498 331L498 329L495 326L497 324L496 323L500 322M489 386L489 388L484 387L479 390L480 393L485 394L483 398L486 401L485 405M485 405L485 407L486 406L489 409L490 408L494 410L494 412L490 414M513 397L510 398L510 400L509 399L504 402L502 402L499 399L499 401L493 405L490 403L485 405M495 381L493 379L491 381L495 384L493 386L489 386M500 322L500 324L508 328L508 334L504 336L503 335L502 338L497 337L495 341L497 341L495 345L496 346L493 347L493 351L490 352M507 356L504 357L501 354L500 355L498 353L495 354L493 352L490 352M512 381L510 383L506 379L506 377L503 378L503 376L501 376L501 378L499 378L496 381L496 379L495 381M495 381L495 379L489 375L489 373L492 372L490 370L492 368L494 370L497 369L497 371L499 370L502 367L501 366L505 364L507 356M500 322L502 317M522 306L522 304L519 307L517 305L517 307L515 307L514 310L510 313L511 316L509 316L509 318L506 319L502 317M507 356L513 360M513 360L516 361L517 364L512 368L509 367L506 372L508 372L510 374L509 375L511 375L511 377M511 377L512 381M538 377L536 373L533 375L532 372L530 374L526 371L525 372L521 370L518 373L515 372L511 377M513 397L512 389L509 390L513 386L512 381M527 405L525 405L524 402L522 404L521 403L524 398L523 395L521 395L522 394L517 397L513 397M521 349L513 349L515 351L514 352L517 353L513 355L513 360M515 425L514 425M515 425L514 424L524 416L524 412L527 409L527 405M515 433L516 433M516 433L518 433M518 340L518 324L520 320L519 315L521 313L521 309L523 307L522 306M518 340L519 344L522 347L521 349M518 340L527 337L527 335L532 336L536 334L537 328M518 432L519 432M546 362L539 359L537 355L527 355L521 349M522 350L522 350M539 296L536 299L530 299L527 302L527 304L522 306M527 405L528 402L532 404L534 400L538 400M547 329L544 330L537 328M537 328L536 325L539 318L536 311L539 308L541 308L542 305L541 302L538 301L541 299L539 296M551 372L547 372L543 374L544 375L540 375L538 377M538 400L540 396L538 396L538 388L536 388L536 386L540 382L538 377M538 400L543 401L539 405L540 406L544 406L546 404L548 406L549 403M568 291L567 292L562 289L563 286L560 281L556 283L554 287L548 287L545 290L542 285L538 291L539 296M551 340L551 342L553 342L554 345L551 346L547 344L548 347L546 347L544 351L545 354L549 354L550 357L546 362M551 372L549 368L550 365L546 362M561 314L558 317L554 317L551 321L550 320L550 322L546 326L547 329M551 340L547 340L547 338L543 336L550 330L546 332L547 329M549 403L551 397L554 394L553 391L557 389L556 386L564 382M557 412L555 410L555 406L549 403M562 375L557 372L555 374L553 370L553 372L551 372M552 340L551 340M569 337L568 336L562 342L561 339L557 341L555 337L552 338L552 340M571 363L567 363L563 357L566 354L567 355L568 352L567 351L563 353L562 349L561 350L562 347L552 340M558 300L558 296L556 296L553 293L553 295L552 294L553 295L551 295L551 297L548 298L549 299L547 303L549 305L555 304M559 311L556 312L554 310L555 304M555 304L555 304M555 304L557 304L557 301M557 301L554 302L555 304M557 412L557 413M558 300L557 301M558 413L558 414M558 300L560 302L558 302L560 305L561 304L561 307M562 375L566 373L566 369L568 369L569 366L570 367L571 363M562 375L561 376L564 379L564 382M575 390L575 388L571 388L571 386L569 388L566 387L566 383L564 382M568 291L568 285L570 283L573 288L581 282L582 283L584 281L591 280L594 276M572 301L570 297L566 295L568 291M578 364L576 366L571 363M577 390L577 390M577 313L579 313M584 360L579 359L580 360L578 364M580 366L578 366L578 364M580 366L581 366M592 247L590 249L586 243L589 240L591 240L591 238L593 238L597 233L597 235L599 235L598 234L600 228L603 227L602 222L606 216L607 211L603 206L601 206L602 207L599 209L591 209L588 205L589 200L585 198L583 200L580 197L583 192L581 190M582 366L582 366M583 366L584 366M584 366L585 365M586 365L587 365M588 365L588 365M637 275L632 274L632 270L624 274L621 271L621 267L619 267L618 270L615 267L616 266L612 264L613 263L611 261L608 262L605 259L597 259L595 256L595 252L591 253M591 253L590 250L593 249L592 247M591 253L588 256L589 257L587 255L582 256L585 259L585 267L587 269L591 267L590 268L594 276M592 247L591 246L592 247M592 247L592 247M592 247L592 247M594 276L595 275L598 278L598 280L600 278L604 286L603 289L605 291L605 295M492 334L492 334M513 392L513 392M532 372L532 372" id="省界"/><path class="leaflet-interactive" stroke="#3388ff" stroke-opacity="0" stroke-width="3" stroke-linecap="round" stroke-linejoin="round" fill="#eee" fill-opacity="0.5" fill-rule="evenodd" d="M558 297L559 296L555 296L554 293L552 295L553 296L548 298L549 299L547 303L549 305L553 305L555 303L554 302L558 300L558 297z" id="北京市"/><path class="leaflet-interactive" stroke="#3388ff" stroke-opacity="0" stroke-width="3" stroke-linecap="round" stroke-linejoin="round" fill="#eee" fill-opacity="0.5" fill-rule="evenodd" d="M560 306L561 305L558 302L560 302L558 300L556 302L557 303L554 305L554 311L559 312L559 310L561 309L560 306zM560 306L560 306z" id="天津市"/><path class="leaflet-interactive" stroke="#3388ff" stroke-opacity="0" stroke-width="3" stroke-linecap="round" stroke-linejoin="round" fill="#eee" fill-opacity="0.5" fill-rule="evenodd" d="M558 296L557 299L560 302L558 302L563 309L565 309L564 308L566 308L572 301L570 297L566 295L568 291L567 292L562 289L563 286L560 281L556 283L554 287L548 287L545 290L542 285L540 287L538 293L540 299L542 299L539 301L538 300L541 303L541 305L542 304L541 307L537 309L538 310L536 314L539 317L539 319L537 325L535 325L538 328L546 330L546 326L550 321L561 314L559 312L554 311L555 304L547 304L547 302L550 299L549 298L553 296L552 295L554 293L555 296L558 296zM557 301L554 302L556 304L557 301zM560 306L560 306zM566 308L566 308z" id="河北省"/><path class="leaflet-interactive" stroke="#3388ff" stroke-opacity="0" stroke-width="3" stroke-linecap="round" stroke-linejoin="round" fill="#eee" fill-opacity="0.5" fill-rule="evenodd" d="M518 340L527 337L527 335L531 336L536 333L536 325L539 320L536 312L542 304L541 305L541 303L538 300L539 301L541 299L540 296L538 298L537 297L536 299L530 299L527 302L527 304L525 304L521 309L522 310L519 315L519 333L517 340z" id="山西省"/><path class="leaflet-interactive" stroke="#3388ff" stroke-opacity="0" stroke-width="3" stroke-linecap="round" stroke-linejoin="round" fill="#eee" fill-opacity="0.5" fill-rule="evenodd" d="M443 280L447 289L445 290L449 297L452 297L453 295L454 296L457 294L459 295L460 299L457 302L464 306L466 310L470 311L471 309L469 308L475 308L481 305L482 306L483 308L478 313L478 317L480 317L482 320L492 317L492 311L497 306L499 308L496 314L501 315L505 319L507 319L510 316L511 312L517 306L520 307L522 304L522 306L524 306L524 304L526 304L529 299L531 300L537 298L539 296L538 291L542 285L545 290L548 287L553 287L555 283L560 282L562 284L561 285L563 287L563 291L568 292L570 284L573 287L573 289L577 284L587 280L591 280L594 277L591 274L593 274L592 269L590 267L587 269L585 267L585 260L584 257L582 257L583 254L585 256L589 256L591 252L590 249L591 250L593 248L591 246L592 247L590 249L586 243L589 240L591 240L591 238L593 238L597 233L597 235L599 235L598 234L600 228L603 227L602 222L606 216L607 211L603 206L601 206L602 207L599 209L591 209L588 205L589 200L585 198L583 200L580 197L583 192L579 190L573 195L573 197L577 197L577 203L573 205L572 210L568 216L569 219L560 225L554 222L550 230L549 236L547 237L550 241L552 239L556 239L558 241L560 238L564 238L571 244L572 248L570 250L566 248L558 250L558 252L555 251L550 258L546 260L543 259L536 265L530 262L526 263L524 267L527 272L525 275L523 275L513 283L500 283L485 289L485 287L482 288L471 285L469 282L453 282L443 280z" id="内蒙古自治区"/><path class="leaflet-interactive" stroke="#3388ff" stroke-opacity="0" stroke-width="3" stroke-linecap="round" stroke-linejoin="round" fill="#eee" fill-opacity="0.5" fill-rule="evenodd" d="M593 303L597 302L601 297L605 295L605 291L603 289L603 285L600 278L598 280L598 278L595 275L593 279L592 278L589 281L586 280L583 283L582 282L577 284L573 288L570 283L568 285L569 290L566 295L570 297L572 301L574 301L577 298L577 296L579 296L578 295L585 296L584 301L581 302L580 305L582 307L579 310L584 309L583 308L584 309L587 305L593 303zM588 307L587 306L588 307zM586 307L586 307zM588 307L588 307zM588 308L588 308zM590 305L590 305zM587 307L587 307zM577 298L577 298zM590 306L590 305zM591 309L591 308zM594 303L594 303z" id="辽宁省"/><path class="leaflet-interactive" stroke="#3388ff" stroke-opacity="0" stroke-width="3" stroke-linecap="round" stroke-linejoin="round" fill="#eee" fill-opacity="0.5" fill-rule="evenodd" d="M627 283L629 279L631 279L633 283L632 280L634 280L637 276L634 275L631 270L623 274L620 267L619 270L617 270L615 267L616 266L614 266L611 261L608 262L601 258L598 259L595 256L596 254L594 252L591 253L588 256L589 257L587 255L583 255L582 257L584 257L586 269L590 267L593 272L593 274L591 274L598 278L598 280L600 278L603 285L603 289L605 291L605 295L607 295L611 288L613 288L613 290L619 291L620 290L618 286L624 286L625 283L627 283z" id="吉林省"/><path class="leaflet-interactive" stroke="#3388ff" stroke-opacity="0" stroke-width="3" stroke-linecap="round" stroke-linejoin="round" fill="#eee" fill-opacity="0.5" fill-rule="evenodd" d="M593 253L594 252L596 254L596 258L601 258L607 262L610 261L613 263L612 264L616 266L615 267L618 270L618 268L621 267L623 274L631 270L632 273L636 275L637 270L635 264L641 260L646 263L647 262L649 256L652 253L654 245L653 244L657 240L655 238L659 234L655 234L643 240L636 241L633 237L634 234L632 230L630 230L626 225L625 226L623 224L620 225L616 223L616 219L614 217L615 216L612 211L612 207L610 205L610 201L607 195L603 191L600 192L595 188L586 188L582 190L583 193L579 197L582 198L582 200L586 198L588 200L590 209L599 209L602 206L605 208L607 212L602 221L603 226L599 230L599 236L598 237L597 234L586 243L590 249L592 247L591 246L593 248L591 250L590 249L590 251L593 253z" id="黑龙江省"/><path class="leaflet-interactive" stroke="#3388ff" stroke-opacity="0" stroke-width="3" stroke-linecap="round" stroke-linejoin="round" fill="#eee" fill-opacity="0.5" fill-rule="evenodd" d="M578 364L579 366L584 366L584 364L581 361L579 361L578 364zM584 360L579 359L581 361L584 361zM583 362L582 361L583 362zM583 362L585 363L583 362zM582 361L582 361zM584 363L584 363zM583 363L584 363z" id="上海市"/><path class="leaflet-interactive" stroke="#3388ff" stroke-opacity="0" stroke-width="3" stroke-linecap="round" stroke-linejoin="round" fill="#eee" fill-opacity="0.5" fill-rule="evenodd" d="M557 340L554 337L552 339L562 347L561 350L562 349L564 353L566 353L566 351L568 353L567 355L566 354L564 356L567 363L568 362L576 366L579 363L579 359L584 360L583 357L581 357L581 355L578 354L578 350L575 343L571 341L568 338L568 336L562 342L561 339L559 341L557 340z" id="江苏省"/><path class="leaflet-interactive" stroke="#3388ff" stroke-opacity="0" stroke-width="3" stroke-linecap="round" stroke-linejoin="round" fill="#eee" fill-opacity="0.5" fill-rule="evenodd" d="M564 382L566 382L566 387L569 388L571 386L571 388L575 388L575 390L577 385L579 385L578 384L582 382L582 376L584 376L584 372L578 364L576 366L571 363L570 367L569 366L569 368L566 369L566 373L562 376L564 382zM585 371L586 370L584 370L585 371zM585 370L585 370zM585 373L585 373zM586 366L587 366zM585 369L585 369zM586 369L586 369zM584 376L584 376zM586 372L587 371L586 372zM586 368L586 368zM583 379L583 379zM586 372L586 372zM583 377L583 377zM580 386L580 386zM584 366L585 367L584 366zM583 381L583 381zM585 373L585 373zM587 371L587 371zM587 367L587 367zM583 381L583 381zM584 370L584 370zM586 371L586 371zM583 371L583 371zM579 387L579 387zM584 376L584 376zM584 373L584 373zM584 370L584 370zM584 369L584 369zM585 371L585 371zM586 373L585 373zM579 385L579 385zM588 370L588 370zM586 369L586 369zM586 372L586 372zM588 366L588 366zM579 384L579 384zM579 384L579 384zM587 371L587 371zM589 366L589 366zM585 371L585 371zM584 371L584 371zM579 384L579 384zM587 371L587 371zM585 371L585 371z" id="浙江省"/><path class="leaflet-interactive" stroke="#3388ff" stroke-opacity="0" stroke-width="3" stroke-linecap="round" stroke-linejoin="round" fill="#eee" fill-opacity="0.5" fill-rule="evenodd" d="M553 344L554 345L551 346L549 344L547 345L548 346L546 350L544 350L544 352L547 355L548 354L550 357L546 361L550 365L549 368L551 372L553 372L553 370L555 374L557 371L563 375L566 372L566 370L569 369L571 364L569 362L566 363L566 361L563 358L565 354L568 353L566 351L566 353L564 353L563 350L561 350L562 347L553 340L551 340L553 344zM566 361L566 361zM554 373L554 373zM547 355L547 355z" id="安徽省"/><path class="leaflet-interactive" stroke="#3388ff" stroke-opacity="0" stroke-width="3" stroke-linecap="round" stroke-linejoin="round" fill="#eee" fill-opacity="0.5" fill-rule="evenodd" d="M567 403L566 402L568 402L568 400L572 400L570 400L572 395L571 393L573 393L572 394L575 389L570 386L568 388L566 386L566 382L564 382L556 386L557 389L553 392L553 396L550 399L549 404L553 406L554 405L555 410L557 412L562 408L562 406L565 406L565 404L567 403zM564 406L563 407L564 406zM570 402L570 402zM570 399L570 399zM573 396L572 395zM563 407L563 407zM572 392L572 392zM562 406L562 406zM572 396L572 396zM571 396L570 396zM573 394L573 393zM571 399L571 399zM571 393L572 393zM573 393L573 393zM575 391L574 391zM574 392L574 392zM571 393L571 393z" id="福建省"/><path class="leaflet-interactive" stroke="#3388ff" stroke-opacity="0" stroke-width="3" stroke-linecap="round" stroke-linejoin="round" fill="#eee" fill-opacity="0.5" fill-rule="evenodd" d="M562 375L557 372L555 374L553 370L553 372L547 372L543 374L544 375L540 375L538 377L540 381L536 387L538 389L538 395L540 395L538 400L543 401L539 405L540 406L544 406L546 404L548 406L549 405L551 397L553 396L552 395L556 387L564 382L561 376L562 375z" id="江西省"/><path class="leaflet-interactive" stroke="#3388ff" stroke-opacity="0" stroke-width="3" stroke-linecap="round" stroke-linejoin="round" fill="#eee" fill-opacity="0.5" fill-rule="evenodd" d="M552 340L552 338L555 337L557 341L561 339L562 342L568 336L569 337L574 330L573 329L576 330L578 326L586 324L588 320L582 320L577 317L574 318L571 322L569 322L567 320L569 317L566 315L564 316L562 314L560 314L558 317L554 317L546 326L546 332L550 330L543 336L548 340L552 340zM577 316L577 317zM577 316L577 316zM578 327L578 327zM577 315L577 315zM578 313L578 313zM574 332L574 332zM576 316L576 316zM577 314L577 314zM581 319L581 319zM581 319L581 319zM581 319L581 319zM547 331L547 331z" id="山东省"/><path class="leaflet-interactive" stroke="#3388ff" stroke-opacity="0" stroke-width="3" stroke-linecap="round" stroke-linejoin="round" fill="#eee" fill-opacity="0.5" fill-rule="evenodd" d="M531 355L537 355L539 359L546 362L547 361L550 357L549 354L545 354L544 351L549 344L551 346L554 345L553 342L551 342L551 340L547 340L545 337L543 337L550 330L546 332L547 329L544 330L538 328L534 335L528 335L528 337L518 341L522 348L521 349L525 354L529 356L531 355zM537 356L537 356z" id="河南省"/><path class="leaflet-interactive" stroke="#3388ff" stroke-opacity="0" stroke-width="3" stroke-linecap="round" stroke-linejoin="round" fill="#eee" fill-opacity="0.5" fill-rule="evenodd" d="M522 350L513 349L515 351L514 352L517 353L513 355L513 359L517 363L517 365L515 365L512 368L509 367L507 369L507 373L508 372L510 374L509 375L511 375L511 377L513 373L519 373L520 370L529 374L533 372L532 373L534 375L536 372L537 377L540 375L544 375L543 374L547 372L551 372L549 368L550 365L547 362L539 359L537 355L527 355L522 350zM511 367L511 367zM522 350L522 350zM531 355L531 355zM532 372L532 372z" id="湖北省"/><path class="leaflet-interactive" stroke="#3388ff" stroke-opacity="0" stroke-width="3" stroke-linecap="round" stroke-linejoin="round" fill="#eee" fill-opacity="0.5" fill-rule="evenodd" d="M527 405L528 402L532 404L534 400L538 400L540 396L538 396L539 393L538 388L536 388L536 386L540 382L536 376L536 372L533 375L532 372L530 374L526 371L525 372L519 370L518 373L516 372L512 374L511 379L513 387L511 387L509 390L513 390L512 395L515 398L516 395L516 397L518 397L521 394L523 398L524 397L521 403L522 404L524 402L525 405L527 404zM513 392L513 392z" id="湖南省"/><path class="leaflet-interactive" stroke="#3388ff" stroke-opacity="0" stroke-width="3" stroke-linecap="round" stroke-linejoin="round" fill="#eee" fill-opacity="0.5" fill-rule="evenodd" d="M536 420L537 417L539 419L548 416L551 417L556 412L556 408L554 406L555 405L549 403L548 406L546 404L544 406L540 406L539 405L543 401L542 400L534 400L532 404L528 402L526 408L527 409L524 412L524 416L514 424L515 433L519 431L517 427L520 425L521 426L533 421L534 422L536 420zM556 413L556 413zM532 423L531 424L532 423zM530 424L531 423L530 424zM540 422L540 421zM518 427L519 426L518 427zM530 424L530 424zM519 427L517 428L519 427zM537 422L537 422zM537 422L537 422zM534 423L534 422zM538 419L537 419zM540 422L540 422zM539 422L539 422zM554 429L555 429zM533 423L533 422zM518 430L518 430zM519 428L519 428zM519 432L519 432zM550 427L550 427zM549 428L550 428zM549 417L549 417zM549 417L549 417z" id="广东省"/><path class="leaflet-interactive" stroke="#3388ff" stroke-opacity="0" stroke-width="3" stroke-linecap="round" stroke-linejoin="round" fill="#eee" fill-opacity="0.5" fill-rule="evenodd" d="M513 397L510 398L510 400L509 399L504 402L501 402L500 399L499 402L498 401L494 403L494 405L490 403L484 405L488 407L488 409L494 409L494 411L491 414L493 416L498 417L496 419L497 422L504 425L514 425L516 422L518 422L518 420L520 420L520 418L524 416L524 412L527 409L527 405L525 405L524 402L522 404L521 403L524 398L522 394L517 397L513 397zM488 403L488 404zM511 428L511 428z" id="广西壮族自治区"/><path class="leaflet-interactive" stroke="#3388ff" stroke-opacity="0" stroke-width="3" stroke-linecap="round" stroke-linejoin="round" fill="#eee" fill-opacity="0.5" fill-rule="evenodd" d="M516 434L512 434L508 438L508 442L510 444L513 445L519 442L519 439L522 436L520 433L517 433zM528 528L528 528zM534 504L535 503zM527 528L527 528zM524 451L524 451zM560 463L560 462zM529 528L529 527zM526 457L526 456zM525 456L525 456zM538 507L542 505L538 506zM538 499L539 500L538 499zM538 500L538 500zM527 456L527 456zM526 455L526 455zM528 499L528 499zM537 508L538 508zM540 500L540 500zM528 452L529 452zM542 491L543 491zM549 494L549 494zM542 493L542 493zM537 506L538 506zM513 508L514 507L513 508zM551 499L552 499zM530 458L531 457L530 458zM530 499L531 499zM541 488L542 488zM529 456L530 456zM553 491L553 490zM529 452L529 452zM524 455L525 455zM547 493L547 493zM542 503L543 503zM541 504L542 503zM545 502L546 503L545 502zM538 504L538 504zM547 496L547 496zM553 498L553 498zM536 499L537 499zM542 487L543 487zM542 485L542 484zM544 488L544 488zM525 455L525 455zM538 499L538 500zM515 505L516 505zM554 484L554 484zM525 454L526 454zM530 455L530 455zM526 457L526 457zM538 493L538 492zM543 503L543 504zM553 494L553 494zM546 492L546 492zM555 490L555 490zM543 457L543 457zM550 497L550 497zM537 497L537 497zM542 507L543 507zM541 489L542 488zM560 488L560 488zM540 491L540 491zM542 484L543 484zM554 490L554 490zM518 504L519 503L518 504zM524 501L524 501zM546 501L546 501zM534 504L534 504zM539 487L539 487zM557 491L557 491zM540 458L540 457zM519 504L519 504zM547 502L547 501zM525 507L525 507zM525 500L526 501L525 500zM518 505L519 505zM529 499L529 499zM553 494L553 494zM527 504L527 504zM541 460L541 460zM544 487L544 487zM539 458L539 458zM550 492L550 492zM557 489L557 489zM543 509L543 509zM532 499L532 499zM525 506L525 506zM528 500L529 499zM530 517L530 517zM542 499L542 499zM543 504L544 504zM533 502L533 502zM536 510L536 510zM554 456L554 456zM558 492L558 492zM533 437L533 437zM541 458L541 457zM538 439L537 439zM531 521L531 521zM525 505L525 505zM529 499L529 499zM532 505L532 505zM530 518L531 518zM530 518L530 518zM546 470L546 470zM536 491L536 491zM538 461L538 461zM532 522L532 521zM530 521L531 521zM529 518L529 518zM528 453L528 453zM528 460L528 459zM531 519L531 519zM530 517L530 517zM534 514L534 514zM551 495L551 495zM544 507L544 507zM525 505L525 505zM538 459L538 459zM544 458L544 458zM554 498L554 498zM531 455L531 455zM523 434L523 434zM549 490L549 490zM557 489L557 489zM531 456L531 456zM549 490L549 490zM530 495L530 495zM542 460L542 460zM557 487L557 487zM560 487L560 487zM539 496L540 496zM543 494L543 495zM530 516L530 516z" id="海南省"/><path class="leaflet-interactive" stroke="#3388ff" stroke-opacity="0" stroke-width="3" stroke-linecap="round" stroke-linejoin="round" fill="#eee" fill-opacity="0.5" fill-rule="evenodd" d="M495 381L497 379L497 381L500 378L501 379L502 376L504 378L505 377L507 379L506 380L508 380L508 382L509 381L509 383L511 383L512 378L511 375L509 375L510 374L508 372L507 373L507 369L509 367L512 368L515 365L516 366L517 363L507 356L505 364L503 366L502 365L502 367L498 371L493 368L491 370L492 371L489 374L493 378L495 378L495 380zM511 367L511 367zM491 370L491 370zM511 367L511 367zM499 371L499 371z" id="重庆市"/><path class="leaflet-interactive" stroke="#3388ff" stroke-opacity="0" stroke-width="3" stroke-linecap="round" stroke-linejoin="round" fill="#eee" fill-opacity="0.5" fill-rule="evenodd" d="M466 389L465 390L467 394L471 396L476 394L475 389L482 380L484 380L483 381L485 385L487 385L488 383L489 386L493 386L495 384L492 383L491 380L495 380L495 378L493 378L489 374L493 368L498 371L502 367L501 366L505 364L507 356L504 357L501 354L495 354L493 352L490 352L488 354L485 353L483 351L483 347L479 345L478 346L476 342L472 344L473 347L470 350L469 347L468 350L465 349L466 352L464 354L460 354L459 351L457 353L454 350L452 350L450 344L447 343L444 346L446 348L444 352L450 357L450 359L453 362L451 362L454 371L454 381L455 382L457 378L460 382L459 383L461 385L463 384L463 386L466 389zM495 370L495 370zM499 370L499 370zM491 370L491 370z" id="四川省"/><path class="leaflet-interactive" stroke="#3388ff" stroke-opacity="0" stroke-width="3" stroke-linecap="round" stroke-linejoin="round" fill="#eee" fill-opacity="0.5" fill-rule="evenodd" d="M512 381L510 383L506 379L506 377L503 378L503 376L501 376L500 379L499 378L496 381L496 379L496 381L493 379L491 381L495 384L493 386L490 385L489 388L481 388L479 390L480 393L485 394L483 399L486 402L485 405L489 403L494 405L494 403L498 401L499 402L500 399L501 402L505 402L505 400L508 401L508 399L511 400L510 399L512 399L513 390L509 390L513 386L512 381zM513 391L513 391zM513 392L513 392z" id="贵州省"/><path class="leaflet-interactive" stroke="#3388ff" stroke-opacity="0" stroke-width="3" stroke-linecap="round" stroke-linejoin="round" fill="#eee" fill-opacity="0.5" fill-rule="evenodd" d="M489 386L488 383L486 385L484 384L484 380L480 381L481 382L479 382L479 385L475 389L476 394L470 396L467 393L464 386L461 385L457 379L455 381L456 382L454 382L454 376L453 379L451 379L452 382L451 383L449 381L448 384L449 387L450 386L452 388L452 398L450 398L446 403L445 409L453 409L451 409L451 411L453 415L454 414L453 415L456 416L454 420L459 421L461 425L465 423L465 425L469 427L469 419L473 417L476 419L478 417L486 417L487 414L491 414L494 411L494 409L488 409L489 408L484 405L486 403L484 399L486 394L484 392L480 392L482 388L489 388L489 386z" id="云南省"/><path class="leaflet-interactive" stroke="#3388ff" stroke-opacity="0" stroke-width="3" stroke-linecap="round" stroke-linejoin="round" fill="#eee" fill-opacity="0.5" fill-rule="evenodd" d="M400 330L398 328L388 327L380 329L379 332L373 332L368 335L364 335L361 332L359 332L355 336L351 334L347 335L343 341L339 341L340 342L337 344L341 352L340 355L338 355L338 353L336 355L336 357L339 360L339 364L345 365L345 367L352 371L353 368L355 368L365 376L368 375L370 379L375 380L374 381L380 385L380 383L382 385L382 383L386 385L396 384L395 387L397 389L398 385L401 382L411 385L411 387L413 387L415 391L422 391L434 382L438 382L442 386L445 381L449 383L449 381L451 383L451 379L453 379L454 376L454 371L449 355L445 354L443 356L444 357L440 359L441 360L437 358L438 360L435 360L433 356L432 357L432 355L428 353L424 355L403 348L401 346L402 345L400 345L400 330z" id="西藏自治区"/><path class="leaflet-interactive" stroke="#3388ff" stroke-opacity="0" stroke-width="3" stroke-linecap="round" stroke-linejoin="round" fill="#eee" fill-opacity="0.5" fill-rule="evenodd" d="M518 340L518 324L520 320L519 315L523 307L522 304L519 307L517 305L517 307L514 308L514 310L510 313L509 318L506 319L502 317L500 319L500 323L508 327L508 335L503 335L502 338L497 337L495 341L497 341L495 345L496 346L492 348L492 352L490 351L491 353L499 353L504 357L507 356L512 360L514 358L513 355L517 353L514 352L515 351L513 349L520 350L522 348L519 345L520 344L518 340zM522 348L522 348zM493 353L493 353z" id="陕西省"/><path class="leaflet-interactive" stroke="#3388ff" stroke-opacity="0" stroke-width="3" stroke-linecap="round" stroke-linejoin="round" fill="#eee" fill-opacity="0.5" fill-rule="evenodd" d="M496 332L495 335L492 334L492 332L489 331L489 324L486 321L485 322L485 320L478 317L478 313L483 309L481 305L476 308L469 308L470 311L464 309L464 307L461 304L456 302L460 299L460 295L457 294L452 297L449 297L449 294L445 291L447 289L443 280L438 281L436 283L437 285L435 288L431 288L423 296L419 297L415 307L419 307L425 311L426 310L428 313L434 313L437 315L440 314L440 312L442 312L441 309L443 307L448 310L452 308L457 313L459 314L459 312L466 317L471 318L470 319L473 322L476 331L474 331L475 334L474 333L470 339L472 342L471 343L467 343L464 341L463 342L467 347L468 346L468 348L470 348L470 350L473 347L471 344L475 342L477 346L478 345L483 347L483 351L485 353L490 353L490 351L491 352L493 350L491 348L496 347L496 337L503 338L504 335L508 335L508 327L497 322L495 326L498 329L498 331L496 332zM493 334L493 334zM475 328L475 328zM493 334L493 334zM496 332L496 332z" id="甘肃省"/><path class="leaflet-interactive" stroke="#3388ff" stroke-opacity="0" stroke-width="3" stroke-linecap="round" stroke-linejoin="round" fill="#eee" fill-opacity="0.5" fill-rule="evenodd" d="M475 328L473 323L474 322L470 318L465 317L463 314L459 312L460 314L458 313L453 308L450 308L448 310L442 307L442 311L438 315L435 313L429 313L427 310L425 311L420 309L420 307L403 312L403 314L405 314L405 318L409 322L406 325L408 327L407 330L402 328L402 330L399 331L401 331L399 335L399 338L401 338L400 345L402 345L401 346L406 350L410 350L424 355L428 353L432 355L431 356L433 356L435 360L437 360L437 358L441 360L440 359L444 357L443 356L445 354L444 351L446 349L444 345L447 343L451 346L452 350L454 350L457 353L459 351L460 354L464 354L466 352L465 349L467 350L469 349L469 347L468 348L468 346L467 347L463 343L472 342L470 338L472 334L475 333L475 328z" id="青海省"/><path class="leaflet-interactive" stroke="#3388ff" stroke-opacity="0" stroke-width="3" stroke-linecap="round" stroke-linejoin="round" fill="#eee" fill-opacity="0.5" fill-rule="evenodd" d="M500 322L502 316L496 314L499 309L498 306L496 306L493 309L491 318L483 320L485 320L485 322L486 321L489 324L489 330L495 336L495 332L498 331L498 329L495 326L497 324L496 323L500 322zM493 334L493 334zM493 334L493 334z" id="宁夏回族自治区"/><path class="leaflet-interactive" stroke="#3388ff" stroke-opacity="0" stroke-width="3" stroke-linecap="round" stroke-linejoin="round" fill="#eee" fill-opacity="0.5" fill-rule="evenodd" d="M438 281L432 268L431 269L419 262L409 262L406 259L408 254L408 248L403 240L397 238L391 233L391 231L389 231L390 228L384 228L384 232L382 234L378 234L377 236L377 246L368 247L363 244L358 256L360 260L354 260L345 263L347 265L347 269L350 276L347 279L349 279L346 281L347 284L343 288L342 287L332 294L329 293L325 297L325 299L321 299L320 297L316 298L313 301L312 300L308 307L311 312L314 311L316 313L315 314L317 320L314 321L314 323L318 323L322 326L323 331L330 334L334 334L335 339L340 342L339 341L343 341L348 334L354 336L360 332L362 334L369 335L373 332L379 332L380 329L388 327L407 330L408 327L406 325L409 322L405 318L405 314L403 314L403 312L415 309L419 297L424 295L430 288L432 288L432 290L437 286L437 281z" id="新疆维吾尔自治区"/><path class="leaflet-interactive" stroke="#3388ff" stroke-opacity="0" stroke-width="3" stroke-linecap="round" stroke-linejoin="round" fill="#eee" fill-opacity="0.5" fill-rule="evenodd" d="M575 419L576 422L578 422L578 418L581 415L584 403L582 401L576 406L573 411L574 418zM599 397L599 397zM592 398L592 398zM571 412L570 412zM594 397L594 397zM570 412L570 412zM570 413L570 413zM570 411L570 411zM584 399L585 399zM581 417L581 417zM581 421L582 421zM585 400L585 400zM569 414L570 414zM575 420L575 419z" id="台湾省"/><path class="leaflet-interactive" stroke="#3388ff" stroke-opacity="0" stroke-width="3" stroke-linecap="round" stroke-linejoin="round" fill="#eee" fill-opacity="0.5" fill-rule="evenodd" d="M539 419L538 420L541 419L539 419zM539 420L539 420zM540 419L540 419zM540 419L540 419zM540 419L540 419zM540 420L540 420zM540 419L540 419zM541 420L541 420zM540 420L540 420z" id="香港特别行政区"/><path class="leaflet-interactive" stroke="#3388ff" stroke-opacity="0" stroke-width="3" stroke-linecap="round" stroke-linejoin="round" fill="#eee" fill-opacity="0.5" fill-rule="evenodd" d="M536 421L536 421zM536 420L536 420z" id="澳门特别行政区"/><path class="leaflet-interactive" stroke="#3388ff" stroke-opacity="0" stroke-width="3" stroke-linecap="round" stroke-linejoin="round" fill="#eee" fill-opacity="0.5" fill-rule="evenodd" d="M587 413L589 406L587 413zM579 429L584 424L583 423L579 429zM570 446L573 440L570 446zM567 463L567 458L567 463zM565 486L564 488L567 481L566 483zM547 509L551 504L547 509zM529 530L526 531L532 529L530 530zM506 515L506 510L506 515zM517 485L516 486L518 480L517 484zM515 462L512 457L514 461z" id="100000_JD"/></g></svg>